<svg xmlns="http://www.w3.org/2000/svg" viewBox="0 0 184.15 18.26"><defs><style>.cls-1{fill:#1d1d1b;}</style></defs><g id="Layer_2" data-name="Layer 2"><g id="Layer_1-2" data-name="Layer 1"><path class="cls-1" d="M2.5,20.42V3.07H7.22a11.07,11.07,0,0,1,4.4.78,7.84,7.84,0,0,1,2.91,2.09,8.14,8.14,0,0,1,1.62,2.87A10.07,10.07,0,0,1,16.66,12,8.65,8.65,0,0,1,16,15.48a7.81,7.81,0,0,1-1.87,2.66,8.32,8.32,0,0,1-2.74,1.7,9.15,9.15,0,0,1-3.27.58Zm2.32-2.23H7.63a7.72,7.72,0,0,0,2.63-.43,6.12,6.12,0,0,0,2.11-1.25,5.66,5.66,0,0,0,1.41-2,7,7,0,0,0,.5-2.73A7,7,0,0,0,13.75,9a5.67,5.67,0,0,0-1.44-2,6.37,6.37,0,0,0-2.06-1.24,7,7,0,0,0-2.4-.42h-3Z" transform="translate(-2.5 -2.35)"/><path class="cls-1" d="M20.06,11.76a8.55,8.55,0,0,1,.69-3.41,8.83,8.83,0,0,1,1.91-2.84,8.69,8.69,0,0,1,2.82-1.93,8.73,8.73,0,0,1,6.85,0A9.16,9.16,0,0,1,37.1,8.35a8.45,8.45,0,0,1,.7,3.43,8.5,8.5,0,0,1-.7,3.44A8.82,8.82,0,0,1,35.18,18a9,9,0,0,1-2.83,1.89,8.58,8.58,0,0,1-3.43.69,8.73,8.73,0,0,1-3.44-.68,8.85,8.85,0,0,1-4.73-4.69A8.7,8.7,0,0,1,20.06,11.76Zm2.4,0a6.63,6.63,0,0,0,.5,2.58,6.41,6.41,0,0,0,1.39,2.1,6.81,6.81,0,0,0,2.06,1.43,6.56,6.56,0,0,0,5.07,0,6.74,6.74,0,0,0,2-1.42,6.84,6.84,0,0,0,1.38-2.1,6.65,6.65,0,0,0,.5-2.57,6.75,6.75,0,0,0-.5-2.59,7.05,7.05,0,0,0-1.38-2.12,6.22,6.22,0,0,0-2.07-1.44,6.16,6.16,0,0,0-2.53-.52,6.31,6.31,0,0,0-2.56.53A6.38,6.38,0,0,0,24.3,7.08,6.64,6.64,0,0,0,22.94,9.2,6.89,6.89,0,0,0,22.46,11.76Z" transform="translate(-2.5 -2.35)"/><path class="cls-1" d="M41.21,11.76a8.72,8.72,0,0,1,.68-3.41,9.09,9.09,0,0,1,4.73-4.77,8.73,8.73,0,0,1,6.85,0,9,9,0,0,1,2.85,1.93,9.22,9.22,0,0,1,1.93,2.84,8.9,8.9,0,0,1,0,6.87A9.16,9.16,0,0,1,56.33,18a9.06,9.06,0,0,1-2.83,1.89,9,9,0,0,1-6.88,0,8.85,8.85,0,0,1-4.73-4.69A8.87,8.87,0,0,1,41.21,11.76Zm2.4,0a6.52,6.52,0,0,0,1.88,4.68,6.73,6.73,0,0,0,2.07,1.43,6.53,6.53,0,0,0,5.06,0,6.51,6.51,0,0,0,2-1.42A6.84,6.84,0,0,0,56,14.35a6.47,6.47,0,0,0,.5-2.57A6.57,6.57,0,0,0,56,9.19a7.05,7.05,0,0,0-1.38-2.12A6.09,6.09,0,0,0,52.6,5.63a6.43,6.43,0,0,0-5.09,0,6.53,6.53,0,0,0-2.07,1.44A6.61,6.61,0,0,0,44.09,9.2,6.89,6.89,0,0,0,43.61,11.76Z" transform="translate(-2.5 -2.35)"/><path class="cls-1" d="M68,3.07a8.27,8.27,0,0,1,2.44.35,5.72,5.72,0,0,1,1.94,1,4.94,4.94,0,0,1,1.3,1.69,5.48,5.48,0,0,1,.46,2.31,6.8,6.8,0,0,1-.3,2,4.83,4.83,0,0,1-1,1.79,5,5,0,0,1-1.8,1.3,6.83,6.83,0,0,1-2.77.49H65.76v6.38H63.43V3.07Zm.24,8.71A4.13,4.13,0,0,0,70,11.47a2.75,2.75,0,0,0,1.06-.8,3.34,3.34,0,0,0,.56-1.05,3.67,3.67,0,0,0,.16-1.08,3.49,3.49,0,0,0-.18-1.08,3.44,3.44,0,0,0-.57-1,3,3,0,0,0-1-.8,3.48,3.48,0,0,0-1.55-.32H65.76v6.48Zm2.86,1.35,4.53,7.29H73L68.35,13.2Z" transform="translate(-2.5 -2.35)"/><path class="cls-1" d="M86.26,20.42,93.82,2.35H94l7.58,18.07H98.88L93.22,6l1.65-1.08-6.31,15.5Zm4.44-6.57h6.45l.77,2H90Z" transform="translate(-2.5 -2.35)"/><path class="cls-1" d="M102.74,3.07h11.55V5.3h-4.66V20.42H107.3V5.3h-4.56Z" transform="translate(-2.5 -2.35)"/><path class="cls-1" d="M118.56,3.07h11.28V5.3h-9v5.28h8v2.26h-8v5.35h9.28v2.23H118.56Z" transform="translate(-2.5 -2.35)"/><path class="cls-1" d="M134.78,3.07h2.33V18.19h8.81v2.23H134.78Z" transform="translate(-2.5 -2.35)"/><path class="cls-1" d="M150.29,3.07h2.32V20.42h-2.32Z" transform="translate(-2.5 -2.35)"/><path class="cls-1" d="M158.18,3.07h11.28V5.3h-9v5.28h8v2.26h-8v5.35h9.29v2.23H158.18Z" transform="translate(-2.5 -2.35)"/><path class="cls-1" d="M179,3.07a8.22,8.22,0,0,1,2.44.35,5.72,5.72,0,0,1,1.94,1,4.71,4.71,0,0,1,1.3,1.69,5.48,5.48,0,0,1,.47,2.31,6.8,6.8,0,0,1-.3,2,4.89,4.89,0,0,1-2.79,3.09,6.8,6.8,0,0,1-2.77.49h-2.57v6.38h-2.32V3.07Zm.24,8.71a4.13,4.13,0,0,0,1.72-.31,2.79,2.79,0,0,0,1.07-.8,3.31,3.31,0,0,0,.55-1.05,3.69,3.69,0,0,0,.17-1.08,3.49,3.49,0,0,0-.18-1.08,3.27,3.27,0,0,0-.58-1,2.86,2.86,0,0,0-1-.8,3.45,3.45,0,0,0-1.55-.32h-2.69v6.48Zm2.86,1.35,4.54,7.29H184l-4.63-7.22Z" transform="translate(-2.5 -2.35)"/></g></g></svg>