<svg xmlns="http://www.w3.org/2000/svg" viewBox="0 0 184.73 200.4"><defs><style>.cls-1{fill:#1d1d1b;}</style></defs><g id="Student_Head"><circle class="cls-1" cx="151.36" cy="89.55" r="6.71"/><circle class="cls-1" cx="34.57" cy="89.55" r="6.71"/></g><g id="Student_Body"><path class="cls-1" d="M41.28,117l-.1,34.35,0,17.85L41,193.69a6.72,6.72,0,0,1-13.43,0l.22-35.34.06-22,.06-19.3a6.71,6.71,0,0,1,13.42,0Z"/><path class="cls-1" d="M158.67,193.69a6.72,6.72,0,0,1-13.43,0l-.34-25.35-.09-18.1L144.65,117a6.72,6.72,0,0,1,13.43,0l.08,17.41v0l.11,22.59Z"/></g><g id="Teacher_Head"><circle class="cls-1" cx="92.36" cy="53.97" r="23.38"/></g><g id="Outer"><path class="cls-1" d="M184.73,92.36V193.69a6.72,6.72,0,0,1-13.43,0l-.57-52.42-.28-48.86a78.09,78.09,0,0,0-156.17,0l-.1,49.09v.05L14,193.69a6.71,6.71,0,0,1-13.42,0L0,93.55V92.36a92.37,92.37,0,0,1,184.73,0Z"/></g><g id="Inner"><path class="cls-1" d="M52.46,138l0-1a39.92,39.92,0,0,1,79.84,0l-.13,22.65-.09,18.61-.37,15.48a6.72,6.72,0,0,1-13.43,0h0V137a25.9,25.9,0,1,0-51.79,0h0L67,193.69h0a6.72,6.72,0,0,1-13.43,0l-.7-15.38-.19-18.64L52.46,138l0-1"/></g></svg>