<?xml version="1.0" encoding="UTF-8"?>
<svg id="Layer_2" data-name="Layer 2" xmlns="http://www.w3.org/2000/svg" viewBox="0 0 202.03 84">
  <defs>
    <style>
      .cls-1 {
        fill: #0b1215;
        stroke-width: 0px;
      }
    </style>
  </defs>
  <g id="Brand_Manual" data-name="Brand Manual">
    <g id="Black-White">
      <g id="Horizontal">
        <g id="Logo">
          <g id="Door">
            <path class="cls-1" d="M85.6,36.74c-.17-7.76-.06-23.26-.06-23.26,0,0,2.03-.34,2.68-.38,2.17-.15,4.76-.27,6.93.13,4.47.83,7.71,2.58,9.8,6.93,1.19,2.48,1.2,5.04.52,7.63-1.22,4.62-4.36,7.25-8.78,8.4-3.43.89-7.39,1.17-11.1.56ZM90.08,32.72s3.62,0,5.51-.57c2.99-.91,4.76-2.98,5.42-6.05.52-2.44-.02-4.66-1.76-6.49-1.75-1.84-3.95-2.58-6.35-2.73-.92-.06-2.8.21-2.8.21v15.63Z"/>
            <path class="cls-1" d="M108.17,21.39c.29-3.62,2.3-6.06,5.64-7.33,3.24-1.24,6.97-.31,9.18,2.19,3.65,4.12,2.11,10.53-3.07,12.8-1.15.5-2.35.81-3.53.75-4.84-.02-8.58-3.81-8.22-8.41ZM123.4,33.27c.19,1.22.08,3.74.08,3.74h-13.85s-.01-2.45.12-3.74h13.65ZM112.39,21.57c-.03,2.42,1.84,4.22,4.39,4.22,2.14,0,3.79-1.72,3.8-3.96.01-2.34-1.75-4.18-4-4.2-2.21-.02-4.16,1.82-4.18,3.95Z"/>
            <path class="cls-1" d="M150.26,24.79c-.14,4.69-1.85,8.56-5.94,11.13-4.89,3.08-11.05,1.9-14.52-2.78-4.87-6.57-2.23-15.98,4.52-19.23,4.46-2.15,9.87-1.02,13.02,2.82,1.92,2.34,2.89,5.01,2.92,8.06ZM131.78,25.46c.03,1.62.41,2.95,1.18,4.23,2.34,3.86,7.31,4.35,10.36,1.03,2.67-2.91,2.91-7.54.57-10.69-2.37-3.19-6.64-3.6-9.53-.87-1.81,1.7-2.6,3.84-2.57,6.31Z"/>
            <path class="cls-1" d="M172.21,35.18c-1.32.75-2.34,1.29-3.67,1.83-.9-1.4-1.82-2.87-2.81-4.15-.7-.91-1.65-1.9-2.49-2.67-1.37-1.24-4.93-.86-4.93-.86l-.38,7.56-4.47-.02.49-23s3.77-.73,5.68-.57c2.05.17,4.02.6,5.81,1.75,3.37,2.17,5.25,7.59,1.56,11.12-.21.18-.65.64-.94.76,1.49,1.26,5.19,6.14,6.17,8.25ZM158.16,25.18s4.13.24,5.6-1.02c1.47-1.26,1.38-3.63.21-4.91-1.72-2.17-5.67-1.8-5.67-1.8l-.14,7.73Z"/>
          </g>
          <g id="Atelier">
            <path class="cls-1" d="M93.38,65.06l-2.92,5.59c-.44,0-3.32.02-4.96,0,.53-1.5,7.01-15.86,10.5-23.53l5.02-.06,10.93,23.59-5.16.05c-.19-.51-1.49-3.98-2.43-5.48l-.03-.04h-.05c-3.83,0-10.77-.13-10.84-.13h-.06ZM94.69,60.65h7.93l-.07-.13c-.79-1.6-1.55-3.35-2.28-5.03-.56-1.28-1.13-2.6-1.72-3.87l-.09-.19-.08.2c-.59,1.46-1.2,2.94-1.79,4.38-.61,1.47-1.23,3-1.85,4.53l-.05.13Z"/>
            <path class="cls-1" d="M124.23,70.67h-11.19s0-2.45.1-3.74h11.03c.16,1.22.06,3.74.06,3.74ZM116.69,51.69h-3.65v-3.96s6.18-.24,11.18,0c.08,1.51,0,3.96,0,3.96h-3.29l-.36,11.81h-4.14l.25-11.81Z"/>
            <path class="cls-1" d="M141.73,56.36c-3.65.24-6.95.02-10.77.21-.11,1.46.51,2.49,1.83,3.05,1.34.56,2.74.63,4.17.37.6-.11,2.07-.42,2.07-.42,0,0,.66,2.19.96,3.43-1.74.77-5.05,1.51-7.89.8-2.95-.95-4.76-2.89-5.41-5.89-.45-2.07-.28-4.08.5-6.03,1.26-3.12,3.51-4.39,6.77-4.78,2.1-.25,4.08.48,5.52,1.85,2.05,1.96,2.72,4.41,2.25,7.43ZM140.99,66.93c.19,1.22.08,3.74.08,3.74h-13.85s-.01-2.45.12-3.74h13.65ZM137.54,52.91c-.57-1.72-1.72-2.41-3.45-2.24-1.51.15-2.61,1.05-2.75,2.24h6.2Z"/>
            <path class="cls-1" d="M160.94,70.42s-15.55.42-15.67.17c-.11-.25.04-17.75.05-20.21,0-.79.04-2.9.04-2.9,0,0,4.66-.09,4.68.02.02.11.04,12.53.04,18.55,2.46.11,10.82-.19,10.82-.19l.04,4.57ZM155.44,61.71l-.03-4.22s0-7.86.15-10.02h4.38c.08,5.06.01,14.11.01,14.11l-4.51.12Z"/>
            <path class="cls-1" d="M179.05,56.36c-3.65.24-6.95.02-10.77.21-.11,1.46.51,2.49,1.83,3.05,1.34.56,2.74.63,4.17.37.6-.11,2.07-.42,2.07-.42,0,0,.66,2.19.96,3.43-1.74.77-5.05,1.51-7.89.8-2.95-.95-4.76-2.89-5.41-5.89-.45-2.07-.28-4.08.5-6.03,1.26-3.12,3.51-4.39,6.77-4.78,2.1-.25,4.08.48,5.52,1.85,2.05,1.96,2.72,4.41,2.25,7.43ZM178.31,66.93c.19,1.22.08,3.74.08,3.74h-13.85s-.01-2.45.12-3.74h13.65ZM174.86,52.91c-.57-1.72-1.72-2.41-3.45-2.24-1.51.15-2.61,1.05-2.75,2.24h6.2Z"/>
            <path class="cls-1" d="M201.14,68.84c-1.32.75-2.34,1.29-3.67,1.83-.9-1.4-1.82-2.87-2.81-4.15-.7-.91-1.65-1.9-2.49-2.67-1.37-1.24-4.93-.86-4.93-.86l-.38,7.56-4.47-.02.49-23s3.77-.73,5.68-.57c2.05.17,4.02.6,5.81,1.75,3.37,2.17,5.25,7.59,1.56,11.12-.21.18-.65.64-.94.76,1.49,1.26,5.19,6.14,6.17,8.25ZM187.09,58.84s4.13.24,5.6-1.02c1.47-1.26,1.38-3.63.21-4.91-1.72-2.17-5.67-1.8-5.67-1.8l-.14,7.73Z"/>
            <path class="cls-1" d="M202.03,46.5c0,1.1-.89,1.98-1.98,1.98s-1.98-.89-1.98-1.98.89-1.98,1.98-1.98,1.98.89,1.98,1.98Z"/>
          </g>
          <g id="Icon">
            <path class="cls-1" d="M71.42,35.71v39.17s0,.08-.02.11h-5.16s-.01-.08-.01-.11l-.23-20.26-.11-18.89c0-16.67-13.52-30.19-30.19-30.19S5.52,19.06,5.52,35.72l-.05,18.98v.02l-.08,20.16s0,.08-.02.11H.23s-.02-.08-.02-.11l-.21-38.7v-.47C0,15.99,15.99,0,35.71,0s35.71,15.99,35.71,35.71Z"/>
            <path class="cls-1" d="M51.14,52.95l-.06,8.75-.03,7.21-.15,5.97s0,.08-.02.11h-5.16s-.02-.08-.02-.11v-21.93c0-5.54-4.48-10.02-10-10.02s-10.02,4.48-10.02,10.02l.21,21.93s0,.08-.01.11h-5.16s-.02-.08-.02-.11l-.27-5.94-.08-7.2-.09-8.39v-.39c0-8.53,6.9-15.43,15.43-15.43s15.43,6.9,15.43,15.43Z"/>
            <path class="cls-1" d="M61.11,34.62c0,1.43-1.16,2.59-2.59,2.59s-2.59-1.16-2.59-2.59,1.16-2.59,2.59-2.59,2.59,1.16,2.59,2.59Z"/>
            <path class="cls-1" d="M61.34,74.88s0,.08-.02.11h-5.16s-.02-.08-.02-.11l-.14-9.79-.03-6.99-.06-12.85c0-1.43,1.16-2.59,2.59-2.59s2.6,1.16,2.6,2.59l.03,6.74.05,8.74.15,14.15Z"/>
            <path class="cls-1" d="M15.96,34.62c0,1.43-1.16,2.59-2.59,2.59s-2.59-1.16-2.59-2.59,1.16-2.59,2.59-2.59,2.59,1.16,2.59,2.59Z"/>
            <path class="cls-1" d="M15.96,45.25l-.05,13.28-.02,6.9-.08,9.45s0,.08-.01.11h-5.16s-.02-.08-.02-.11l.09-13.66.02-8.51.03-7.46c0-1.43,1.16-2.59,2.59-2.59s2.6,1.16,2.6,2.59Z"/>
            <circle class="cls-1" cx="35.71" cy="20.86" r="9.04"/>
            <path class="cls-1" d="M25.89,79.14c.36,1.58.14,4.86.14,4.86L0,83.99s-.02-3.17.23-4.85h25.66Z"/>
            <path class="cls-1" d="M71.36,79.14c.36,1.58.14,4.86.14,4.86l-26.03-.02s-.02-3.17.23-4.85h25.66Z"/>
          </g>
        </g>
      </g>
    </g>
  </g>
</svg>