<?xml version="1.0" encoding="UTF-8"?>
<svg id="Layer_2" data-name="Layer 2" xmlns="http://www.w3.org/2000/svg" viewBox="0 0 68.34 80.22">
  <defs>
    <style>
      .cls-1 {
        fill: #0b1215;
        stroke-width: 0px;
      }
    </style>
  </defs>
  <g id="Brand_Manual" data-name="Brand Manual">
    <g id="Black-White">
      <g id="Icon">
        <g id="Logo">
          <path class="cls-1" d="M68.2,34.1v37.4s0,.07-.01.1h-4.93s-.01-.07-.01-.1l-.22-19.35-.1-18.04c0-15.91-12.91-28.83-28.83-28.83S5.27,18.2,5.27,34.11l-.04,18.13h0s-.07,19.26-.07,19.26c0,.03,0,.07-.01.1H.22s-.01-.07-.01-.1L0,34.54v-.45C0,15.27,15.27,0,34.1,0s34.1,15.27,34.1,34.1Z"/>
          <path class="cls-1" d="M48.84,50.56l-.06,8.36-.03,6.88-.14,5.7s0,.07-.01.1h-4.93s-.01-.07-.01-.1v-20.94c0-5.29-4.28-9.57-9.55-9.57s-9.57,4.28-9.57,9.57l.2,20.94s0,.07-.01.1h-4.93s-.01-.07-.01-.1l-.26-5.67-.07-6.88-.09-8.01v-.37c0-8.14,6.59-14.74,14.74-14.74s14.74,6.59,14.74,14.74Z"/>
          <path class="cls-1" d="M58.36,33.06c0,1.37-1.11,2.48-2.48,2.48s-2.48-1.11-2.48-2.48,1.11-2.48,2.48-2.48,2.48,1.11,2.48,2.48Z"/>
          <path class="cls-1" d="M58.57,71.5s0,.07-.01.1h-4.93s-.01-.07-.01-.1l-.13-9.35-.03-6.68-.06-12.27c0-1.36,1.11-2.47,2.47-2.47s2.48,1.11,2.48,2.47l.03,6.43.04,8.35.14,13.52Z"/>
          <circle class="cls-1" cx="12.76" cy="33.06" r="2.48"/>
          <path class="cls-1" d="M15.24,43.21l-.04,12.68v6.59s-.09,9.02-.09,9.02c0,.03,0,.07-.01.1h-4.93s-.01-.07-.01-.1l.09-13.04v-8.13s.04-7.12.04-7.12c0-1.36,1.11-2.47,2.47-2.47s2.48,1.11,2.48,2.47Z"/>
          <circle class="cls-1" cx="34.1" cy="19.92" r="8.63"/>
          <path class="cls-1" d="M24.72,75.57c.35,1.51.14,4.64.14,4.64L0,80.2s-.02-3.03.22-4.63h24.5Z"/>
          <path class="cls-1" d="M68.14,75.57c.35,1.51.14,4.64.14,4.64l-24.86-.02s-.02-3.03.22-4.63h24.5Z"/>
        </g>
      </g>
    </g>
  </g>
</svg>