<?xml version="1.0" encoding="UTF-8"?>
<svg id="Layer_2" data-name="Layer 2" xmlns="http://www.w3.org/2000/svg" viewBox="0 0 238.82 30">
  <defs>
    <style>
      .cls-1 {
        fill: #0b1215;
        stroke-width: 0px;
      }
    </style>
  </defs>
  <g id="Brand_Manual" data-name="Brand Manual">
    <g id="Black-White">
      <g id="Text">
        <g id="Logo">
          <path class="cls-1" d="M.11,28.99C-.09,20.31.04,2.94.04,2.94c0,0,2.28-.38,3-.43,2.43-.17,5.33-.31,7.77.14,5.01.93,8.64,2.89,10.98,7.76,1.34,2.78,1.34,5.65.58,8.55-1.36,5.18-4.89,8.13-9.83,9.41-3.84.99-8.28,1.31-12.43.63ZM5.13,24.5s4.06,0,6.17-.64c3.35-1.01,5.33-3.34,6.07-6.78.59-2.74-.02-5.22-1.97-7.27-1.96-2.06-4.42-2.89-7.12-3.06-1.03-.06-3.14.24-3.14.24v17.51Z"/>
          <path class="cls-1" d="M25.4,11.81c.32-4.06,2.57-6.79,6.32-8.22,3.63-1.38,7.81-.34,10.29,2.45,4.08,4.61,2.37,11.8-3.44,14.34-1.29.56-2.63.91-3.96.84-5.42-.02-9.62-4.27-9.21-9.42ZM42.46,25.11c.22,1.36.08,4.19.08,4.19h-15.51s-.01-2.75.14-4.19h15.29ZM30.13,12.01c-.04,2.71,2.06,4.73,4.91,4.73,2.39,0,4.24-1.93,4.26-4.44.01-2.62-1.96-4.69-4.48-4.71-2.47-.02-4.66,2.04-4.69,4.42Z"/>
          <path class="cls-1" d="M72.55,15.61c-.16,5.25-2.07,9.59-6.66,12.47-5.48,3.45-12.38,2.13-16.27-3.11-5.46-7.36-2.49-17.91,5.06-21.55,4.99-2.4,11.06-1.14,14.59,3.16,2.15,2.62,3.24,5.62,3.27,9.02ZM51.85,16.36c.04,1.81.45,3.31,1.32,4.74,2.62,4.32,8.19,4.88,11.6,1.15,2.99-3.26,3.26-8.44.64-11.98-2.65-3.58-7.43-4.03-10.68-.98-2.03,1.91-2.91,4.31-2.88,7.06Z"/>
          <path class="cls-1" d="M97.14,27.25c-1.48.84-2.63,1.44-4.11,2.05-1.01-1.57-2.03-3.21-3.15-4.65-.79-1.02-1.85-2.13-2.79-2.99-1.53-1.39-5.53-.97-5.53-.97l-.42,8.47-5.01-.02.54-25.77s4.22-.82,6.36-.64c2.3.19,4.5.67,6.51,1.96,3.78,2.43,5.88,8.51,1.75,12.46-.23.2-.73.72-1.06.85,1.67,1.41,5.82,6.87,6.92,9.24ZM81.4,16.05s4.63.27,6.28-1.15c1.65-1.41,1.55-4.07.23-5.5-1.93-2.43-6.36-2.02-6.36-2.02l-.16,8.66Z"/>
          <path class="cls-1" d="M117.09,23.02l-3.27,6.27c-.49,0-3.72.02-5.56,0,.59-1.68,7.85-17.76,11.76-26.36l5.62-.06,12.25,26.42-5.78.06c-.21-.57-1.67-4.46-2.72-6.13l-.03-.05h-.06c-4.29,0-12.07-.14-12.14-.14h-.06ZM118.55,18.07h8.88l-.07-.15c-.88-1.8-1.73-3.75-2.55-5.64-.62-1.43-1.26-2.91-1.93-4.34l-.1-.22-.09.22c-.66,1.63-1.34,3.29-2,4.9-.68,1.65-1.38,3.36-2.07,5.07l-.06.14Z"/>
          <path class="cls-1" d="M151.65,29.3h-12.54s-.01-2.75.11-4.19h12.35c.18,1.36.07,4.19.07,4.19ZM143.2,8.03h-4.08V3.6s6.92-.27,12.53,0c.09,1.69,0,4.44,0,4.44h-3.69l-.4,13.23h-4.64l.28-13.23Z"/>
          <path class="cls-1" d="M171.26,13.27c-4.09.27-7.79.02-12.07.23-.12,1.63.57,2.79,2.05,3.41,1.5.63,3.07.71,4.68.41.67-.12,2.32-.47,2.32-.47,0,0,.74,2.45,1.08,3.84-1.95.87-5.65,1.7-8.83.9-3.31-1.06-5.33-3.24-6.06-6.6-.5-2.32-.32-4.58.56-6.76,1.41-3.49,3.93-4.92,7.58-5.36,2.35-.28,4.58.54,6.18,2.07,2.29,2.2,3.05,4.94,2.52,8.32ZM170.43,25.11c.22,1.36.09,4.19.09,4.19h-15.51s-.01-2.75.14-4.19h15.29ZM166.57,9.4c-.64-1.93-1.93-2.7-3.87-2.5-1.69.17-2.92,1.17-3.09,2.5h6.95Z"/>
          <path class="cls-1" d="M192.77,29.02s-17.42.48-17.55.19c-.13-.28.04-19.88.05-22.64,0-.88.04-3.25.04-3.25,0,0,5.22-.1,5.25.02.02.13.04,14.04.04,20.78,2.76.12,12.12-.22,12.12-.22l.05,5.11ZM186.62,19.26l-.03-4.73s0-8.81.17-11.23h4.91c.09,5.67.01,15.81.01,15.81l-5.06.14Z"/>
          <path class="cls-1" d="M213.07,13.27c-4.09.27-7.79.02-12.07.23-.12,1.63.57,2.79,2.05,3.41,1.5.63,3.07.71,4.68.41.67-.12,2.32-.47,2.32-.47,0,0,.74,2.45,1.08,3.84-1.95.87-5.65,1.7-8.83.9-3.31-1.06-5.33-3.24-6.06-6.6-.5-2.32-.32-4.58.56-6.76,1.41-3.49,3.93-4.92,7.58-5.36,2.35-.28,4.58.54,6.18,2.07,2.29,2.2,3.05,4.94,2.52,8.32ZM212.24,25.11c.22,1.36.09,4.19.09,4.19h-15.51s-.01-2.75.14-4.19h15.29ZM208.38,9.4c-.64-1.93-1.93-2.7-3.87-2.5-1.69.17-2.92,1.17-3.09,2.5h6.95Z"/>
          <path class="cls-1" d="M237.81,27.25c-1.48.84-2.63,1.44-4.11,2.05-1.01-1.57-2.03-3.21-3.15-4.65-.79-1.02-1.85-2.13-2.79-2.99-1.53-1.39-5.53-.97-5.53-.97l-.42,8.47-5.01-.02.54-25.77s4.22-.82,6.36-.64c2.3.19,4.5.67,6.51,1.96,3.78,2.43,5.88,8.51,1.75,12.46-.23.2-.73.72-1.06.85,1.67,1.41,5.82,6.87,6.92,9.24ZM222.07,16.05s4.63.27,6.28-1.15c1.65-1.41,1.55-4.07.23-5.5-1.93-2.43-6.36-2.02-6.36-2.02l-.16,8.66Z"/>
          <path class="cls-1" d="M238.82,2.22c0,1.23-.99,2.22-2.22,2.22s-2.22-.99-2.22-2.22.99-2.22,2.22-2.22,2.22.99,2.22,2.22Z"/>
        </g>
      </g>
    </g>
  </g>
</svg>